<?xml version="1.0" standalone="no"?>
<!DOCTYPE svg PUBLIC "-//W3C//DTD SVG 20010904//EN"
 "http://www.w3.org/TR/2001/REC-SVG-20010904/DTD/svg10.dtd">
<svg version="1.0" xmlns="http://www.w3.org/2000/svg"
 width="500.000000pt" height="500.000000pt" viewBox="0 0 500.000000 500.000000"
 preserveAspectRatio="xMidYMid meet">

<g transform="translate(0.000000,500.000000) scale(0.100000,-0.100000)"
fill="#000000" stroke="none">
<path d="M755 3214 c-187 -102 -350 -192 -362 -200 l-23 -14 0 -400 c0 -384 1
-401 21 -457 13 -34 41 -77 68 -107 95 -102 319 -265 499 -364 153 -84 148
-83 247 -34 263 130 565 363 622 480 l28 57 3 395 c2 217 1 404 -2 416 -4 15
-31 36 -78 61 -40 22 -202 110 -359 196 -158 87 -295 157 -305 157 -11 0 -172
-84 -359 -186z m635 -47 c96 -53 207 -113 245 -134 99 -54 110 -61 105 -66 -3
-3 -106 -50 -230 -105 -124 -55 -251 -112 -282 -127 l-58 -26 0 -339 0 -339
35 15 c60 25 202 113 252 156 26 22 63 61 81 86 l32 46 0 233 0 234 96 45 c52
24 100 44 105 44 7 0 9 -123 7 -352 l-3 -353 -27 -45 c-53 -91 -342 -307 -564
-424 l-72 -37 -93 51 c-136 75 -299 186 -418 286 -157 132 -151 110 -151 532
0 225 3 342 10 342 6 0 55 -19 110 -42 l100 -42 0 -236 0 -237 29 -44 c31 -45
83 -93 161 -145 51 -35 174 -104 183 -104 4 0 7 151 7 336 l0 335 -92 43 c-51
23 -177 80 -281 126 -103 46 -186 87 -185 92 2 4 143 84 313 177 l310 169 50
-28 c28 -15 129 -71 225 -123z"/>
<path d="M2260 2504 l0 -464 205 0 205 0 0 70 0 70 -130 0 -130 0 0 393 0 392
-75 1 -75 2 0 -464z"/>
<path d="M2823 2963 c-10 -4 -13 -106 -13 -464 l0 -459 210 0 210 0 0 70 0 70
-140 0 -141 0 3 138 3 137 123 3 122 3 0 59 0 60 -125 0 -125 0 0 125 c0 148
-12 138 158 133 l112 -3 0 68 0 68 -192 -2 c-106 -1 -199 -3 -205 -6z"/>
<path d="M3555 2958 c-6 -19 -225 -905 -225 -912 0 -3 33 -6 74 -6 l73 0 23
100 24 100 126 0 127 0 22 -100 22 -100 81 0 c66 0 79 3 75 14 -6 14 -43 167
-148 601 -28 116 -58 234 -66 263 l-14 52 -95 0 c-67 0 -96 -4 -99 -12z m119
-210 c69 -317 83 -384 79 -390 -2 -5 -49 -8 -103 -8 -54 0 -101 3 -103 8 -6
10 96 462 104 462 4 0 14 -33 23 -72z"/>
<path d="M4120 2506 l0 -466 73 0 72 0 0 187 0 188 100 5 c109 6 131 14 188
68 98 94 104 292 12 400 -55 63 -95 75 -282 80 l-163 4 0 -466z m308 314 c80
-49 83 -198 7 -258 -23 -18 -41 -22 -99 -22 l-71 0 -2 142 c-1 78 0 145 3 150
3 4 33 8 67 8 45 0 71 -6 95 -20z"/>
</g>
</svg>
